<mxfile host="app.diagrams.net" modified="2023-12-08T03:45:48.074Z" agent="Mozilla/5.0 (Macintosh; Intel Mac OS X 10_15_7) AppleWebKit/537.36 (KHTML, like Gecko) Chrome/119.0.0.0 Safari/537.36" etag="EfaPDSeqgIob5cpMojul" version="22.1.7" type="github">
  <diagram name="第 1 页" id="oaBtw_5lV8ZzY2PORr2H">
    <mxGraphModel dx="2062" dy="1993" grid="1" gridSize="10" guides="1" tooltips="1" connect="1" arrows="1" fold="1" page="1" pageScale="1" pageWidth="827" pageHeight="1169" math="0" shadow="0">
      <root>
        <mxCell id="0" />
        <mxCell id="1" parent="0" />
        <mxCell id="1u79h0HgcGvWxB0CrH6v-33" value="" style="rounded=0;whiteSpace=wrap;html=1;fillColor=#dae8fc;strokeColor=#6c8ebf;dashed=1;opacity=20;" vertex="1" parent="1">
          <mxGeometry x="-260" y="-30" width="640" height="690" as="geometry" />
        </mxCell>
        <mxCell id="1u79h0HgcGvWxB0CrH6v-37" value="" style="rounded=1;whiteSpace=wrap;html=1;dashed=1;dashPattern=1 1;fillColor=#f8cecc;strokeColor=#b85450;opacity=30;" vertex="1" parent="1">
          <mxGeometry x="-250" y="320" width="450" height="125" as="geometry" />
        </mxCell>
        <mxCell id="1u79h0HgcGvWxB0CrH6v-34" value="" style="rounded=0;whiteSpace=wrap;html=1;fillColor=#d5e8d4;strokeColor=#82b366;dashed=1;opacity=20;" vertex="1" parent="1">
          <mxGeometry x="450" y="-30" width="490" height="690" as="geometry" />
        </mxCell>
        <mxCell id="1u79h0HgcGvWxB0CrH6v-1" value="课件服务" style="rounded=0;whiteSpace=wrap;html=1;fontSize=16;" vertex="1" parent="1">
          <mxGeometry y="220" width="110" height="60" as="geometry" />
        </mxCell>
        <mxCell id="1u79h0HgcGvWxB0CrH6v-2" value="课件API" style="rounded=0;whiteSpace=wrap;html=1;fontSize=16;" vertex="1" parent="1">
          <mxGeometry x="240" y="360" width="110" height="60" as="geometry" />
        </mxCell>
        <mxCell id="1u79h0HgcGvWxB0CrH6v-3" value="缓存" style="rounded=0;whiteSpace=wrap;html=1;fontSize=16;" vertex="1" parent="1">
          <mxGeometry x="240" y="460" width="110" height="60" as="geometry" />
        </mxCell>
        <mxCell id="1u79h0HgcGvWxB0CrH6v-4" value="数据库" style="rounded=0;whiteSpace=wrap;html=1;fontSize=16;" vertex="1" parent="1">
          <mxGeometry x="240" y="560" width="110" height="60" as="geometry" />
        </mxCell>
        <mxCell id="1u79h0HgcGvWxB0CrH6v-5" value="素材库" style="rounded=0;whiteSpace=wrap;html=1;fontSize=16;" vertex="1" parent="1">
          <mxGeometry x="70" y="360" width="110" height="60" as="geometry" />
        </mxCell>
        <mxCell id="1u79h0HgcGvWxB0CrH6v-6" value="网校题库" style="rounded=0;whiteSpace=wrap;html=1;fontSize=16;" vertex="1" parent="1">
          <mxGeometry x="-80" y="360" width="110" height="60" as="geometry" />
        </mxCell>
        <mxCell id="1u79h0HgcGvWxB0CrH6v-7" value="内容云题库" style="rounded=0;whiteSpace=wrap;html=1;fontSize=16;fillColor=#f8cecc;strokeColor=#b85450;" vertex="1" parent="1">
          <mxGeometry x="-230" y="360" width="110" height="60" as="geometry" />
        </mxCell>
        <mxCell id="1u79h0HgcGvWxB0CrH6v-8" value="HA网关" style="rounded=0;whiteSpace=wrap;html=1;fontSize=16;" vertex="1" parent="1">
          <mxGeometry y="60" width="110" height="60" as="geometry" />
        </mxCell>
        <mxCell id="1u79h0HgcGvWxB0CrH6v-9" value="GW网关" style="rounded=0;whiteSpace=wrap;html=1;fontSize=16;" vertex="1" parent="1">
          <mxGeometry x="240" y="60" width="110" height="60" as="geometry" />
        </mxCell>
        <mxCell id="1u79h0HgcGvWxB0CrH6v-10" value="" style="endArrow=classic;html=1;rounded=0;dashed=1;" edge="1" parent="1">
          <mxGeometry width="50" height="50" relative="1" as="geometry">
            <mxPoint x="55" y="130" as="sourcePoint" />
            <mxPoint x="55" y="210" as="targetPoint" />
          </mxGeometry>
        </mxCell>
        <mxCell id="1u79h0HgcGvWxB0CrH6v-11" value="" style="endArrow=classic;html=1;rounded=0;dashed=1;" edge="1" parent="1">
          <mxGeometry width="50" height="50" relative="1" as="geometry">
            <mxPoint x="294.5" y="130" as="sourcePoint" />
            <mxPoint x="295" y="350" as="targetPoint" />
          </mxGeometry>
        </mxCell>
        <mxCell id="1u79h0HgcGvWxB0CrH6v-12" value="" style="endArrow=classic;html=1;rounded=0;dashed=1;" edge="1" parent="1">
          <mxGeometry width="50" height="50" relative="1" as="geometry">
            <mxPoint x="120" y="240" as="sourcePoint" />
            <mxPoint x="260" y="350" as="targetPoint" />
            <Array as="points">
              <mxPoint x="260" y="240" />
            </Array>
          </mxGeometry>
        </mxCell>
        <mxCell id="1u79h0HgcGvWxB0CrH6v-13" value="" style="endArrow=classic;html=1;rounded=0;dashed=1;" edge="1" parent="1">
          <mxGeometry width="50" height="50" relative="1" as="geometry">
            <mxPoint x="120" y="260" as="sourcePoint" />
            <mxPoint x="150" y="350" as="targetPoint" />
            <Array as="points">
              <mxPoint x="150" y="260" />
            </Array>
          </mxGeometry>
        </mxCell>
        <mxCell id="1u79h0HgcGvWxB0CrH6v-14" value="" style="endArrow=classic;html=1;rounded=0;dashed=1;" edge="1" parent="1">
          <mxGeometry width="50" height="50" relative="1" as="geometry">
            <mxPoint x="-10" y="260" as="sourcePoint" />
            <mxPoint x="-40" y="350" as="targetPoint" />
            <Array as="points">
              <mxPoint x="-40" y="260" />
            </Array>
          </mxGeometry>
        </mxCell>
        <mxCell id="1u79h0HgcGvWxB0CrH6v-15" value="" style="endArrow=classic;html=1;rounded=0;dashed=1;" edge="1" parent="1">
          <mxGeometry width="50" height="50" relative="1" as="geometry">
            <mxPoint x="-10" y="240" as="sourcePoint" />
            <mxPoint x="-170" y="350" as="targetPoint" />
            <Array as="points">
              <mxPoint x="-170" y="240" />
            </Array>
          </mxGeometry>
        </mxCell>
        <mxCell id="1u79h0HgcGvWxB0CrH6v-16" value="" style="endArrow=classic;html=1;rounded=0;dashed=1;" edge="1" parent="1">
          <mxGeometry width="50" height="50" relative="1" as="geometry">
            <mxPoint x="294.86" y="530" as="sourcePoint" />
            <mxPoint x="294.86" y="550" as="targetPoint" />
          </mxGeometry>
        </mxCell>
        <mxCell id="1u79h0HgcGvWxB0CrH6v-17" value="" style="endArrow=classic;html=1;rounded=0;dashed=1;" edge="1" parent="1">
          <mxGeometry width="50" height="50" relative="1" as="geometry">
            <mxPoint x="294.86" y="430" as="sourcePoint" />
            <mxPoint x="294.86" y="450" as="targetPoint" />
          </mxGeometry>
        </mxCell>
        <mxCell id="1u79h0HgcGvWxB0CrH6v-18" value="课件服务" style="rounded=0;whiteSpace=wrap;html=1;fontSize=16;" vertex="1" parent="1">
          <mxGeometry x="560" y="220" width="110" height="60" as="geometry" />
        </mxCell>
        <mxCell id="1u79h0HgcGvWxB0CrH6v-19" value="课件API" style="rounded=0;whiteSpace=wrap;html=1;fontSize=16;" vertex="1" parent="1">
          <mxGeometry x="800" y="360" width="110" height="60" as="geometry" />
        </mxCell>
        <mxCell id="1u79h0HgcGvWxB0CrH6v-20" value="缓存" style="rounded=0;whiteSpace=wrap;html=1;fontSize=16;" vertex="1" parent="1">
          <mxGeometry x="800" y="460" width="110" height="60" as="geometry" />
        </mxCell>
        <mxCell id="1u79h0HgcGvWxB0CrH6v-21" value="数据库" style="rounded=0;whiteSpace=wrap;html=1;fontSize=16;" vertex="1" parent="1">
          <mxGeometry x="800" y="560" width="110" height="60" as="geometry" />
        </mxCell>
        <mxCell id="1u79h0HgcGvWxB0CrH6v-22" value="素材库" style="rounded=0;whiteSpace=wrap;html=1;fontSize=16;" vertex="1" parent="1">
          <mxGeometry x="630" y="360" width="110" height="60" as="geometry" />
        </mxCell>
        <mxCell id="1u79h0HgcGvWxB0CrH6v-23" value="网校题库" style="rounded=0;whiteSpace=wrap;html=1;fontSize=16;" vertex="1" parent="1">
          <mxGeometry x="480" y="360" width="110" height="60" as="geometry" />
        </mxCell>
        <mxCell id="1u79h0HgcGvWxB0CrH6v-24" value="HA网关" style="rounded=0;whiteSpace=wrap;html=1;fontSize=16;" vertex="1" parent="1">
          <mxGeometry x="560" y="60" width="110" height="60" as="geometry" />
        </mxCell>
        <mxCell id="1u79h0HgcGvWxB0CrH6v-25" value="GW网关" style="rounded=0;whiteSpace=wrap;html=1;fontSize=16;" vertex="1" parent="1">
          <mxGeometry x="800" y="60" width="110" height="60" as="geometry" />
        </mxCell>
        <mxCell id="1u79h0HgcGvWxB0CrH6v-26" value="" style="endArrow=classic;html=1;rounded=0;dashed=1;" edge="1" parent="1">
          <mxGeometry width="50" height="50" relative="1" as="geometry">
            <mxPoint x="610" y="130" as="sourcePoint" />
            <mxPoint x="610" y="210" as="targetPoint" />
          </mxGeometry>
        </mxCell>
        <mxCell id="1u79h0HgcGvWxB0CrH6v-27" value="" style="endArrow=classic;html=1;rounded=0;dashed=1;" edge="1" parent="1">
          <mxGeometry width="50" height="50" relative="1" as="geometry">
            <mxPoint x="854.5" y="130" as="sourcePoint" />
            <mxPoint x="855" y="350" as="targetPoint" />
          </mxGeometry>
        </mxCell>
        <mxCell id="1u79h0HgcGvWxB0CrH6v-28" value="" style="endArrow=classic;html=1;rounded=0;dashed=1;" edge="1" parent="1">
          <mxGeometry width="50" height="50" relative="1" as="geometry">
            <mxPoint x="680" y="240" as="sourcePoint" />
            <mxPoint x="820" y="350" as="targetPoint" />
            <Array as="points">
              <mxPoint x="820" y="240" />
            </Array>
          </mxGeometry>
        </mxCell>
        <mxCell id="1u79h0HgcGvWxB0CrH6v-29" value="" style="endArrow=classic;html=1;rounded=0;dashed=1;" edge="1" parent="1">
          <mxGeometry width="50" height="50" relative="1" as="geometry">
            <mxPoint x="680" y="260" as="sourcePoint" />
            <mxPoint x="710" y="350" as="targetPoint" />
            <Array as="points">
              <mxPoint x="710" y="260" />
            </Array>
          </mxGeometry>
        </mxCell>
        <mxCell id="1u79h0HgcGvWxB0CrH6v-30" value="" style="endArrow=classic;html=1;rounded=0;dashed=1;" edge="1" parent="1">
          <mxGeometry width="50" height="50" relative="1" as="geometry">
            <mxPoint x="550" y="260" as="sourcePoint" />
            <mxPoint x="520" y="350" as="targetPoint" />
            <Array as="points">
              <mxPoint x="520" y="260" />
            </Array>
          </mxGeometry>
        </mxCell>
        <mxCell id="1u79h0HgcGvWxB0CrH6v-31" value="" style="endArrow=classic;html=1;rounded=0;dashed=1;" edge="1" parent="1">
          <mxGeometry width="50" height="50" relative="1" as="geometry">
            <mxPoint x="854.86" y="530" as="sourcePoint" />
            <mxPoint x="854.86" y="550" as="targetPoint" />
          </mxGeometry>
        </mxCell>
        <mxCell id="1u79h0HgcGvWxB0CrH6v-32" value="" style="endArrow=classic;html=1;rounded=0;dashed=1;" edge="1" parent="1">
          <mxGeometry width="50" height="50" relative="1" as="geometry">
            <mxPoint x="854.86" y="430" as="sourcePoint" />
            <mxPoint x="854.86" y="450" as="targetPoint" />
          </mxGeometry>
        </mxCell>
        <mxCell id="1u79h0HgcGvWxB0CrH6v-35" value="" style="endArrow=classic;html=1;rounded=0;" edge="1" parent="1">
          <mxGeometry width="50" height="50" relative="1" as="geometry">
            <mxPoint x="54.71" y="-20" as="sourcePoint" />
            <mxPoint x="54.71" y="50" as="targetPoint" />
          </mxGeometry>
        </mxCell>
        <mxCell id="1u79h0HgcGvWxB0CrH6v-36" value="" style="endArrow=classic;html=1;rounded=0;" edge="1" parent="1">
          <mxGeometry width="50" height="50" relative="1" as="geometry">
            <mxPoint x="294.71000000000004" y="-20" as="sourcePoint" />
            <mxPoint x="294.71000000000004" y="50" as="targetPoint" />
          </mxGeometry>
        </mxCell>
        <mxCell id="1u79h0HgcGvWxB0CrH6v-38" value="外部依赖" style="text;html=1;strokeColor=none;fillColor=none;align=center;verticalAlign=middle;whiteSpace=wrap;rounded=0;" vertex="1" parent="1">
          <mxGeometry x="-250" y="320" width="60" height="30" as="geometry" />
        </mxCell>
        <mxCell id="1u79h0HgcGvWxB0CrH6v-39" value="博兴机房" style="text;html=1;strokeColor=none;fillColor=none;align=center;verticalAlign=middle;whiteSpace=wrap;rounded=0;fontSize=20;" vertex="1" parent="1">
          <mxGeometry x="-250" y="-20" width="110" height="40" as="geometry" />
        </mxCell>
        <mxCell id="1u79h0HgcGvWxB0CrH6v-40" value="阿里云" style="text;html=1;strokeColor=none;fillColor=none;align=center;verticalAlign=middle;whiteSpace=wrap;rounded=0;fontSize=20;" vertex="1" parent="1">
          <mxGeometry x="460" y="-20" width="110" height="40" as="geometry" />
        </mxCell>
        <mxCell id="1u79h0HgcGvWxB0CrH6v-41" value="" style="rounded=1;whiteSpace=wrap;html=1;dashed=1;dashPattern=1 1;fillColor=#f8cecc;strokeColor=#b85450;opacity=30;" vertex="1" parent="1">
          <mxGeometry x="460" y="320" width="300" height="125" as="geometry" />
        </mxCell>
        <mxCell id="1u79h0HgcGvWxB0CrH6v-42" value="外部依赖" style="text;html=1;strokeColor=none;fillColor=none;align=center;verticalAlign=middle;whiteSpace=wrap;rounded=0;" vertex="1" parent="1">
          <mxGeometry x="460" y="320" width="60" height="30" as="geometry" />
        </mxCell>
      </root>
    </mxGraphModel>
  </diagram>
</mxfile>
